{"title":"Marina and The Diamonds - Froot (2014.Pop)","uid":11470461,"size":89829602,"categoryP":"video","categoryS":"music_videos","magnet":"?xt=urn:btih:ac5626b867f58d4762cd2bcd4dfbad49a10817a3&amp;dn=Marina+and+The+Diamonds+-+Froot+%282014.Pop%29&amp;tr=udp%3A%2F%2Ftracker.openbittorrent.com%3A80&amp;tr=udp%3A%2F%2Fopen.demonii.com%3A1337&amp;tr=udp%3A%2F%2Ftracker.coppersurfer.tk%3A6969&amp;tr=udp%3A%2F%2Fexodus.desync.com%3A6969","seeders":8,"leechers":0,"uploader":"MeRaDil","files":-1,"time":1416076956,"description":"MARINA AND THE DIAMONDS - FROOT\n\n &lt;a href=&quot;\nhttp://ultraimg.com/images/Marina.png&quot; rel=&quot;nofollow&quot; target=&quot;_NEW&quot;&gt;\nhttp://ultraimg.com/images/Marina.png&lt;/a&gt;\n\nMPEG4 MUSIC VID\nGeneral\nMarina and The Diamonds - Froot\nFormat                                   : MPEG-4\nFormat profile                           : Base Media\nCodec ID                                 : isom\nFile size                                : 85.7 MiB\nDuration                                 : 4mn 12s\nOverall bit rate                         : 2 851 Kbps\nMusicVid name                            : Froot\nAlbum                                    : Froot\nPerformer                                : Marina and The Diamonds\nGenre                                    : Pop/Disco\nContentType                              : Music Video\nRecorded date                            : 2014\nISRC                                     : The Promo Bay\nCopyright                                : Marina and The Diamonds\nCover                                    : Yes\nRating                                   : ***\nMake                                     : MeRaDil\noday                                     : 11-11-2014  UK\nrati                                     : (Binary)\nArtist url                               : http://www.marinaandthediamonds.com\nlabel                                    : Atlantic Records\nrelease                                  : UK . november 11 . 2014\nPart_ID                                  : Froot\n\nVideo\nID                                       : 1\nFormat                                   : AVC\nFormat/Info                              : Advanced Video Codec\nFormat profile                           : &lt;a class=&quot;__cf_email__&quot; href=&quot;/cdn-cgi/l/email-protection&quot; data-cfemail=&quot;b0f8d9d7d8f0fc849e80&quot;&gt;[email&amp;#160;protected]&lt;/a&gt;&lt;script cf-hash='f9e31' type=&quot;text/javascript&quot;&gt;\n/* &lt;![CDATA[ */!function(){try{var t=&quot;currentScript&quot;in document?document.currentScript:function(){for(var t=document.getElementsByTagName(&quot;script&quot;),e=t.length;e--;)if(t[e].getAttribute(&quot;cf-hash&quot;))return t[e]}();if(t&amp;&amp;t.previousSibling){var e,r,n,i,c=t.previousSibling,a=c.getAttribute(&quot;data-cfemail&quot;);if(a){for(e=&quot;&quot;,r=parseInt(a.substr(0,2),16),n=2;a.length-n;n+=2)i=parseInt(a.substr(n,2),16)^r,e+=String.fromCharCode(i);e=document.createTextNode(e),c.parentNode.replaceChild(e,c)}}}catch(u){}}();/* ]]&gt; */&lt;/script&gt;\nFormat settings, CABAC                   : Yes\nFormat settings, ReFrames                : 2 frames\nCodec ID                                 : avc1\nCodec ID/Info                            : Advanced Video Coding\nDuration                                 : 4mn 12s\nBit rate                                 : 2 588 Kbps\nWidth                                    : 1 920 pixels\nHeight                                   : 1 080 pixels\nDisplay aspect ratio                     : 16:9\nFrame rate mode                          : Constant\nFrame rate                               : 25.000 fps\nColor space                              : YUV\nChroma subsampling                       : 4:2:0\nBit depth                                : 8 bits\nScan type                                : Progressive\nBits/(Pixel*Frame)                       : 0.050\nStream size                              : 77.7 MiB (91%)\n\nAudio\nID                                       : 2\nFormat                                   : AAC\nFormat/Info                              : Advanced Audio Codec\nFormat profile                           : LC\nCodec ID                                 : 40\nDuration                                 : 4mn 12s\nBit rate mode                            : Constant\nBit rate                                 : 256 Kbps\nChannel(s)                               : 2 channels\nChannel positions                        : Front: L R\nSampling rate                            : 44.1 KHz\nCompression mode                         : Lossy\nStream size                              : 7.69 MiB (9%)\n &lt;a href=&quot;\nhttps://thepiratebay.se/user/MeRaDil&quot; rel=&quot;nofollow&quot; target=&quot;_NEW&quot;&gt;\nhttps://thepiratebay.se/user/MeRaDil&lt;/a&gt;\n\nMarina and The Diamonds * Froot * Disco/Pop * Promo\n\n:)","torrent":{"xt":"urn:btih:ac5626b867f58d4762cd2bcd4dfbad49a10817a3","amp;dn":"Marina+and+The+Diamonds+-+Froot+%282014.Pop%29","amp;tr":["udp%3A%2F%2Ftracker.openbittorrent.com%3A80","udp%3A%2F%2Fopen.demonii.com%3A1337","udp%3A%2F%2Ftracker.coppersurfer.tk%3A6969","udp%3A%2F%2Fexodus.desync.com%3A6969"],"infoHash":"ac5626b867f58d4762cd2bcd4dfbad49a10817a3","infoHashBuffer":{"type":"Buffer","data":[172,86,38,184,103,245,141,71,98,205,43,205,77,251,173,73,161,8,23,163]},"announce":[],"urlList":[]}}